<?xml version="1.0" encoding="UTF-8"?>
<svg width="165px" height="165px" viewBox="0 0 165 165" version="1.1" xmlns="http://www.w3.org/2000/svg" xmlns:xlink="http://www.w3.org/1999/xlink">
    <title>Light</title>
    <defs>
        <path d="M20,0 L140,0 C151.045695,-3.55271368e-15 160,8.954305 160,20 L160,140 C160,151.045695 151.045695,160 140,160 L20,160 C8.954305,160 0,151.045695 0,140 L0,20 C0,8.954305 8.954305,0 20,0 Z" id="path-1"></path>
        <filter x="-2.0%" y="-1.4%" width="104.7%" height="104.7%" filterUnits="objectBoundingBox" id="filter-2">
            <feOffset dx="0.5" dy="1.5" in="SourceAlpha" result="shadowOffsetOuter1"></feOffset>
            <feGaussianBlur stdDeviation="1" in="shadowOffsetOuter1" result="shadowBlurOuter1"></feGaussianBlur>
            <feColorMatrix values="0 0 0 0 0.656957654   0 0 0 0 0.656957654   0 0 0 0 0.656957654  0 0 0 1 0" type="matrix" in="shadowBlurOuter1"></feColorMatrix>
        </filter>
        <path d="M0,0 L68,0 L68,68 L0,68 L0,0 Z" id="path-3"></path>
        <linearGradient x1="50%" y1="0%" x2="-232.646484%" y2="332.978516%" id="linearGradient-4">
            <stop stop-color="#FFFFFF" offset="0%"></stop>
            <stop stop-color="#000000" offset="100%"></stop>
        </linearGradient>
    </defs>
    <g id="Light" stroke="none" fill="none" transform="translate(2, 1)" xlink:href="#path-1">
        <use fill="black" fill-opacity="1" filter="url(#filter-2)" xlink:href="#path-1"></use>
        <use fill="#F2F2F2" fill-rule="evenodd" xlink:href="#path-1"></use>
        <g id="Logo" stroke-width="1" fill-rule="evenodd" transform="translate(28, 33)">
            <g id="Frame" transform="translate(18, 0)" xlink:href="#path-3" fill="#F2F2F2" stroke="url(#linearGradient-4)">
                <rect id="Rectangle-2" x="0.5" y="0.5" width="19" height="19" rx="4"></rect>
                <rect id="Rectangle-2" x="24.5" y="0.5" width="19" height="19" rx="8"></rect>
                <rect id="Rectangle-2" x="48.5" y="0.5" width="19" height="19" rx="9.5"></rect>
                <rect id="Rectangle-2" x="0.5" y="24.5" width="19" height="19" rx="4"></rect>
                <rect id="Rectangle-2" x="24.5" y="24.5" width="19" height="19" rx="8"></rect>
                <rect id="Rectangle-2" x="48.5" y="24.5" width="19" height="19" rx="9.5"></rect>
                <rect id="Rectangle-2" x="0.5" y="48.5" width="19" height="19" rx="4"></rect>
                <rect id="Rectangle-2" x="24.5" y="48.5" width="19" height="19" rx="8"></rect>
                <rect id="Rectangle-2" x="48.5" y="48.5" width="19" height="19" rx="9.5"></rect>
            </g>
            <g id="Group" transform="translate(0, 68)" fill="#262624" fill-rule="nonzero">
                <g>
                    <g id="nuitral">
                        <path d="M27.46,19.776 C27.46,18.88 27.208,18.224 26.704,17.808 C26.2,17.392 25.524,17.184 24.676,17.184 C24.036,17.184 23.468,17.264 22.972,17.424 C22.476,17.584 22.052,17.768 21.7,17.976 L21.7,26.952 C21.62,26.984 21.5,27.02 21.34,27.06 C21.18,27.1 21.004,27.12 20.812,27.12 C20.124,27.12 19.78,26.832 19.78,26.256 L19.78,18.072 C19.78,17.736 19.848,17.46 19.984,17.244 C20.12,17.028 20.356,16.816 20.692,16.608 C21.108,16.352 21.66,16.12 22.348,15.912 C23.036,15.704 23.812,15.6 24.676,15.6 C26.132,15.6 27.28,15.928 28.12,16.584 C28.96,17.24 29.38,18.272 29.38,19.68 L29.38,26.952 C29.3,26.984 29.176,27.02 29.008,27.06 C28.84,27.1 28.668,27.12 28.492,27.12 C27.804,27.12 27.46,26.832 27.46,26.256 L27.46,19.776 Z" id="Path"></path>
                        <path d="M32.98,15.96 C33.06,15.928 33.184,15.892 33.352,15.852 C33.52,15.812 33.7,15.792 33.892,15.792 C34.564,15.792 34.9,16.088 34.9,16.68 L34.9,22.848 C34.9,23.888 35.172,24.628 35.716,25.068 C36.26,25.508 37.012,25.728 37.972,25.728 C38.612,25.728 39.156,25.66 39.604,25.524 C40.052,25.388 40.404,25.248 40.66,25.104 L40.66,15.96 C40.74,15.928 40.864,15.892 41.032,15.852 C41.2,15.812 41.372,15.792 41.548,15.792 C42.236,15.792 42.58,16.088 42.58,16.68 L42.58,25.032 C42.58,25.368 42.536,25.636 42.448,25.836 C42.36,26.036 42.148,26.232 41.812,26.424 C41.444,26.632 40.936,26.832 40.288,27.024 C39.64,27.216 38.86,27.312 37.948,27.312 C36.348,27.312 35.12,26.96 34.264,26.256 C33.408,25.552 32.98,24.448 32.98,22.944 L32.98,15.96 Z" id="Path"></path>
                        <path d="M48.22,26.952 C48.14,26.984 48.02,27.02 47.86,27.06 C47.7,27.1 47.524,27.12 47.332,27.12 C46.644,27.12 46.3,26.832 46.3,26.256 L46.3,15.96 C46.38,15.928 46.504,15.892 46.672,15.852 C46.84,15.812 47.02,15.792 47.212,15.792 C47.884,15.792 48.22,16.088 48.22,16.68 L48.22,26.952 Z M46.012,12.408 C46.012,12.072 46.128,11.788 46.36,11.556 C46.592,11.324 46.892,11.208 47.26,11.208 C47.628,11.208 47.924,11.324 48.148,11.556 C48.372,11.788 48.484,12.072 48.484,12.408 C48.484,12.744 48.372,13.028 48.148,13.26 C47.924,13.492 47.628,13.608 47.26,13.608 C46.892,13.608 46.592,13.492 46.36,13.26 C46.128,13.028 46.012,12.744 46.012,12.408 Z" id="Shape"></path>
                        <path d="M55.756,27.312 C54.636,27.312 53.728,27.064 53.032,26.568 C52.336,26.072 51.988,25.248 51.988,24.096 L51.988,12.696 C52.068,12.664 52.192,12.628 52.36,12.588 C52.528,12.548 52.708,12.528 52.9,12.528 C53.572,12.528 53.908,12.816 53.908,13.392 L53.908,16.152 L57.844,16.152 C57.892,16.232 57.94,16.34 57.988,16.476 C58.036,16.612 58.06,16.76 58.06,16.92 C58.06,17.464 57.82,17.736 57.34,17.736 L53.908,17.736 L53.908,23.976 C53.908,24.616 54.088,25.068 54.448,25.332 C54.808,25.596 55.316,25.728 55.972,25.728 C56.244,25.728 56.548,25.68 56.884,25.584 C57.22,25.488 57.5,25.376 57.724,25.248 C57.82,25.344 57.908,25.464 57.988,25.608 C58.068,25.752 58.108,25.92 58.108,26.112 C58.108,26.464 57.9,26.752 57.484,26.976 C57.068,27.2 56.492,27.312 55.756,27.312 Z" id="Path"></path>
                        <path d="M62.812,26.952 C62.732,26.984 62.612,27.02 62.452,27.06 C62.292,27.1 62.116,27.12 61.924,27.12 C61.236,27.12 60.892,26.832 60.892,26.256 L60.892,18.12 C60.892,17.752 60.96,17.46 61.096,17.244 C61.232,17.028 61.46,16.816 61.78,16.608 C62.196,16.336 62.76,16.1 63.472,15.9 C64.184,15.7 64.988,15.6 65.884,15.6 C67.164,15.6 67.804,15.92 67.804,16.56 C67.804,16.72 67.78,16.868 67.732,17.004 C67.684,17.14 67.62,17.256 67.54,17.352 C67.38,17.32 67.172,17.288 66.916,17.256 C66.66,17.224 66.404,17.208 66.148,17.208 C65.412,17.208 64.764,17.284 64.204,17.436 C63.644,17.588 63.18,17.768 62.812,17.976 L62.812,26.952 Z" id="Path"></path>
                        <path d="M73.9,25.752 C74.572,25.752 75.128,25.684 75.568,25.548 C76.008,25.412 76.324,25.28 76.516,25.152 L76.516,21.672 L73.54,21.984 C72.708,22.064 72.092,22.252 71.692,22.548 C71.292,22.844 71.092,23.28 71.092,23.856 C71.092,24.464 71.324,24.932 71.788,25.26 C72.252,25.588 72.956,25.752 73.9,25.752 Z M73.876,15.6 C75.268,15.6 76.372,15.912 77.188,16.536 C78.004,17.16 78.412,18.144 78.412,19.488 L78.412,25.176 C78.412,25.528 78.344,25.796 78.208,25.98 C78.072,26.164 77.868,26.336 77.596,26.496 C77.212,26.72 76.704,26.916 76.072,27.084 C75.44,27.252 74.716,27.336 73.9,27.336 C72.396,27.336 71.232,27.04 70.408,26.448 C69.584,25.856 69.172,25 69.172,23.88 C69.172,22.824 69.516,22.028 70.204,21.492 C70.892,20.956 71.86,20.624 73.108,20.496 L76.516,20.16 L76.516,19.488 C76.516,18.688 76.276,18.104 75.796,17.736 C75.316,17.368 74.668,17.184 73.852,17.184 C73.18,17.184 72.548,17.28 71.956,17.472 C71.364,17.664 70.836,17.88 70.372,18.12 C70.244,18.008 70.128,17.88 70.024,17.736 C69.92,17.592 69.868,17.432 69.868,17.256 C69.868,17.032 69.924,16.848 70.036,16.704 C70.148,16.56 70.324,16.424 70.564,16.296 C70.996,16.072 71.492,15.9 72.052,15.78 C72.612,15.66 73.22,15.6 73.876,15.6 Z" id="Shape"></path>
                        <path d="M84.028,26.952 C83.948,26.984 83.828,27.02 83.668,27.06 C83.508,27.1 83.332,27.12 83.14,27.12 C82.452,27.12 82.108,26.832 82.108,26.256 L82.108,11.448 C82.188,11.416 82.312,11.38 82.48,11.34 C82.648,11.3 82.82,11.28 82.996,11.28 C83.684,11.28 84.028,11.568 84.028,12.144 L84.028,26.952 Z" id="Path"></path>
                    </g>
                    <g id="Core" transform="translate(60, 30.548)">
                        <path d="M7.312,0.96 C7.312,1.072 7.278,1.168 7.21,1.248 C7.142,1.328 7.064,1.388 6.976,1.428 C6.768,1.284 6.524,1.148 6.244,1.02 C5.964,0.892 5.6,0.828 5.152,0.828 C4.784,0.828 4.444,0.892 4.132,1.02 C3.82,1.148 3.548,1.336 3.316,1.584 C3.084,1.832 2.902,2.144 2.77,2.52 C2.638,2.896 2.572,3.328 2.572,3.816 C2.572,4.312 2.636,4.744 2.764,5.112 C2.892,5.48 3.07,5.788 3.298,6.036 C3.526,6.284 3.8,6.47 4.12,6.594 C4.44,6.718 4.796,6.78 5.188,6.78 C5.604,6.78 5.966,6.722 6.274,6.606 C6.582,6.49 6.84,6.352 7.048,6.192 C7.128,6.224 7.204,6.282 7.276,6.366 C7.348,6.45 7.384,6.548 7.384,6.66 C7.384,6.828 7.288,6.98 7.096,7.116 C6.912,7.244 6.66,7.358 6.34,7.458 C6.02,7.558 5.612,7.608 5.116,7.608 C4.612,7.608 4.144,7.528 3.712,7.368 C3.28,7.208 2.906,6.97 2.59,6.654 C2.274,6.338 2.024,5.944 1.84,5.472 C1.656,5 1.564,4.448 1.564,3.816 C1.564,3.184 1.658,2.63 1.846,2.154 C2.034,1.678 2.288,1.28 2.608,0.96 C2.928,0.64 3.302,0.4 3.73,0.24 C4.158,0.08 4.608,0 5.08,0 C5.408,0 5.71,0.028 5.986,0.084 C6.262,0.14 6.498,0.214 6.694,0.306 C6.89,0.398 7.042,0.502 7.15,0.618 C7.258,0.734 7.312,0.848 7.312,0.96 Z" id="Path"></path>
                        <path d="M13.72,4.68 C13.72,5.128 13.656,5.532 13.528,5.892 C13.4,6.252 13.218,6.56 12.982,6.816 C12.746,7.072 12.46,7.268 12.124,7.404 C11.788,7.54 11.412,7.608 10.996,7.608 C10.58,7.608 10.204,7.54 9.868,7.404 C9.532,7.268 9.244,7.072 9.004,6.816 C8.764,6.56 8.58,6.252 8.452,5.892 C8.324,5.532 8.26,5.128 8.26,4.68 C8.26,4.232 8.326,3.828 8.458,3.468 C8.59,3.108 8.776,2.8 9.016,2.544 C9.256,2.288 9.544,2.092 9.88,1.956 C10.216,1.82 10.588,1.752 10.996,1.752 C11.404,1.752 11.776,1.82 12.112,1.956 C12.448,2.092 12.734,2.288 12.97,2.544 C13.206,2.8 13.39,3.108 13.522,3.468 C13.654,3.828 13.72,4.232 13.72,4.68 Z M10.996,2.544 C10.452,2.544 10.024,2.732 9.712,3.108 C9.4,3.484 9.244,4.008 9.244,4.68 C9.244,5.36 9.398,5.886 9.706,6.258 C10.014,6.63 10.444,6.816 10.996,6.816 C11.548,6.816 11.976,6.628 12.28,6.252 C12.584,5.876 12.736,5.352 12.736,4.68 C12.736,4.008 12.582,3.484 12.274,3.108 C11.966,2.732 11.54,2.544 10.996,2.544 Z" id="Shape"></path>
                        <path d="M16.168,7.428 C16.128,7.444 16.068,7.462 15.988,7.482 C15.908,7.502 15.82,7.512 15.724,7.512 C15.38,7.512 15.208,7.368 15.208,7.08 L15.208,3.012 C15.208,2.828 15.242,2.682 15.31,2.574 C15.378,2.466 15.492,2.36 15.652,2.256 C15.86,2.12 16.142,2.002 16.498,1.902 C16.854,1.802 17.256,1.752 17.704,1.752 C18.344,1.752 18.664,1.912 18.664,2.232 C18.664,2.312 18.652,2.386 18.628,2.454 C18.604,2.522 18.572,2.58 18.532,2.628 C18.452,2.612 18.348,2.596 18.22,2.58 C18.092,2.564 17.964,2.556 17.836,2.556 C17.468,2.556 17.144,2.594 16.864,2.67 C16.584,2.746 16.352,2.836 16.168,2.94 L16.168,7.428 Z" id="Path"></path>
                        <path d="M20.356,5.244 C20.572,6.292 21.26,6.816 22.42,6.816 C22.756,6.816 23.06,6.76 23.332,6.648 C23.604,6.536 23.82,6.416 23.98,6.288 C24.172,6.4 24.268,6.552 24.268,6.744 C24.268,6.856 24.218,6.964 24.118,7.068 C24.018,7.172 23.882,7.264 23.71,7.344 C23.538,7.424 23.338,7.488 23.11,7.536 C22.882,7.584 22.636,7.608 22.372,7.608 C21.444,7.608 20.71,7.356 20.17,6.852 C19.63,6.348 19.36,5.612 19.36,4.644 C19.36,4.188 19.426,3.782 19.558,3.426 C19.69,3.07 19.874,2.768 20.11,2.52 C20.346,2.272 20.628,2.082 20.956,1.95 C21.284,1.818 21.64,1.752 22.024,1.752 C22.384,1.752 22.716,1.812 23.02,1.932 C23.324,2.052 23.586,2.222 23.806,2.442 C24.026,2.662 24.198,2.922 24.322,3.222 C24.446,3.522 24.508,3.852 24.508,4.212 C24.508,4.388 24.468,4.514 24.388,4.59 C24.308,4.666 24.196,4.712 24.052,4.728 L20.356,5.244 Z M22.012,2.532 C21.524,2.532 21.12,2.702 20.8,3.042 C20.48,3.382 20.312,3.868 20.296,4.5 L23.596,4.044 C23.556,3.604 23.402,3.242 23.134,2.958 C22.866,2.674 22.492,2.532 22.012,2.532 Z" id="Shape"></path>
                    </g>
                </g>
            </g>
        </g>
    </g>
</svg>