<svg xmlns="http://www.w3.org/2000/svg" viewBox="0 0 165 165"><defs><filter id="a" width="104.7%" height="104.7%" x="-2%" y="-1.4%" filterUnits="objectBoundingBox"><feOffset dx=".5" dy="1.5" in="SourceAlpha" result="shadowOffsetOuter1"/><feGaussianBlur in="shadowOffsetOuter1" result="shadowBlurOuter1" stdDeviation="1"/><feColorMatrix in="shadowBlurOuter1" values="0 0 0 0 0.0739639946 0 0 0 0 0.0739639946 0 0 0 0 0.0739639946 0 0 0 1 0"/></filter><path id="b" d="M20 0h120c11.045695 0 20 8.954305 20 20v120c0 11.045695-8.954305 20-20 20H20c-11.045695 0-20-8.954305-20-20V20C0 8.954305 8.954305 0 20 0"/></defs><g fill="none" transform="translate(2 1)"><use fill="#000" filter="url(#a)" href="#b"/><use fill="#262624" fill-rule="evenodd" href="#b"/><g fill-rule="evenodd" stroke="#f2f2f2" transform="translate(46 33)"><rect width="19" height="19" x=".5" y=".5" rx="4"/><rect width="19" height="19" x="24.5" y=".5" rx="8"/><rect width="19" height="19" x="48.5" y=".5" rx="9.5"/><rect width="19" height="19" x=".5" y="24.5" rx="4"/><rect width="19" height="19" x="24.5" y="24.5" rx="8"/><rect width="19" height="19" x="48.5" y="24.5" rx="9.5"/><rect width="19" height="19" x=".5" y="48.5" rx="4"/><rect width="19" height="19" x="24.5" y="48.5" rx="8"/><rect width="19" height="19" x="48.5" y="48.5" rx="9.5"/></g><path fill="#f2f2f2" d="M55.46 120.776q0-1.344-.756-1.968t-2.028-.624q-.96 0-1.704.24t-1.272.552v8.976q-.12.048-.36.108t-.528.06q-1.032 0-1.032-.864v-8.184q0-.504.204-.828t.708-.636q.624-.384 1.656-.696t2.328-.312q2.184 0 3.444.984t1.26 3.096v7.272q-.12.048-.372.108t-.516.06q-1.032 0-1.032-.864zm5.52-3.816q.12-.048.372-.108t.54-.06q1.008 0 1.008.888v6.168q0 1.56.816 2.22t2.256.66q.96 0 1.632-.204t1.056-.42v-9.144q.12-.048.372-.108t.516-.06q1.032 0 1.032.888v8.352q0 .504-.132.804t-.636.588q-.552.312-1.524.6t-2.34.288q-2.4 0-3.684-1.056t-1.284-3.312zm15.24 10.992q-.12.048-.36.108t-.528.06q-1.032 0-1.032-.864V116.96q.12-.048.372-.108t.54-.06q1.008 0 1.008.888zm-2.208-14.544q0-.504.348-.852t.9-.348.888.348.336.852-.336.852-.888.348-.9-.348-.348-.852m9.744 14.904q-1.68 0-2.724-.744t-1.044-2.472v-11.4q.12-.048.372-.108t.54-.06q1.008 0 1.008.864v2.76h3.936q.072.12.144.324t.072.444q0 .816-.72.816h-3.432v6.24q0 .96.54 1.356t1.524.396q.408 0 .912-.144t.84-.336q.144.144.264.36t.12.504q0 .528-.624.864t-1.728.336m7.056-.36q-.12.048-.36.108t-.528.06q-1.032 0-1.032-.864v-8.136q0-.552.204-.876t.684-.636q.624-.408 1.692-.708t2.412-.3q1.92 0 1.92.96 0 .24-.072.444t-.192.348q-.24-.048-.624-.096t-.768-.048q-1.104 0-1.944.228t-1.392.54zm11.088-1.2q1.008 0 1.668-.204t.948-.396v-3.48l-2.976.312q-1.248.12-1.848.564t-.6 1.308q0 .912.696 1.404t2.112.492m-.024-10.152q2.088 0 3.312.936t1.224 2.952v5.688q0 .528-.204.804t-.612.516q-.576.336-1.524.588t-2.172.252q-2.256 0-3.492-.888t-1.236-2.568q0-1.584 1.032-2.388t2.904-.996l3.408-.336v-.672q0-1.2-.72-1.752t-1.944-.552q-1.008 0-1.896.288t-1.584.648q-.192-.168-.348-.384t-.156-.48q0-.336.168-.552t.528-.408q.648-.336 1.488-.516t1.824-.18m10.152 11.352q-.12.048-.36.108t-.528.06q-1.032 0-1.032-.864v-14.808q.12-.048.372-.108t.516-.06q1.032 0 1.032.864zm-18.48 6.152q-.408 0-.756.138t-.6.408-.396.672-.144.918q0 1.032.516 1.578t1.38.546q.504 0 .84-.138t.6-.318q.132.072.216.18t.084.264q0 .168-.132.312t-.366.252-.552.174-.69.066q-.624 0-1.152-.18t-.912-.54-.6-.906-.216-1.29q0-.732.228-1.278t.612-.918.906-.558 1.11-.186q.372 0 .69.066t.546.186.354.27.126.306q0 .144-.084.252t-.216.168q-.264-.18-.576-.312t-.816-.132m8.172 2.124q0 .672-.192 1.212t-.546.924-.858.588-1.128.204-1.128-.204-.864-.588-.552-.924-.192-1.212.198-1.212.558-.924.864-.588 1.116-.204 1.116.204.858.588.552.924.198 1.212m-2.724-2.136q-.816 0-1.284.564t-.468 1.572q0 1.02.462 1.578t1.29.558 1.284-.564.456-1.572-.462-1.572-1.278-.564m5.172 4.884q-.06.024-.18.054t-.264.03q-.516 0-.516-.432v-4.068q0-.276.102-.438t.342-.318q.312-.204.846-.354t1.206-.15q.96 0 .96.48 0 .12-.036.222t-.096.174q-.12-.024-.312-.048t-.384-.024q-.552 0-.972.114t-.696.27zm4.188-2.184q.324 1.572 2.064 1.572.504 0 .912-.168t.648-.36q.288.168.288.456 0 .168-.15.324t-.408.276-.6.192-.738.072q-1.392 0-2.202-.756t-.81-2.208q0-.684.198-1.218t.552-.906.846-.57 1.068-.198q.54 0 .996.18t.786.51.516.78.186.99q0 .264-.12.378t-.336.138zm1.656-2.712q-.732 0-1.212.51t-.504 1.458l3.3-.456q-.06-.66-.462-1.086t-1.122-.426"/></g></svg>