<?xml version="1.0" encoding="UTF-8"?>
<svg width="160px" height="160px" viewBox="0 0 160 160" version="1.1" xmlns="http://www.w3.org/2000/svg" xmlns:xlink="http://www.w3.org/1999/xlink">
    <title>Light</title>
    <defs>
        <path d="M20,0 L140,0 C151.045695,-3.55271368e-15 160,8.954305 160,20 L160,140 C160,151.045695 151.045695,160 140,160 L20,160 C8.954305,160 0,151.045695 0,140 L0,20 C0,8.954305 8.954305,0 20,0 Z" id="path-1"></path>
        <path d="M0,0 L68,0 L68,68 L0,68 L0,0 Z" id="path-2"></path>
    </defs>
    <g id="Light" stroke="none" fill="none" xlink:href="#path-1" fill-rule="evenodd">
        <use fill="#F2F2F2" xlink:href="#path-1"></use>
        <g id="Logo" stroke-width="1" transform="translate(28, 33)" stroke="#262624">
            <g id="Frame" transform="translate(18, 0)" xlink:href="#path-2">
                <rect id="Rectangle-2" x="0.5" y="0.5" width="19" height="19" rx="4"></rect>
                <rect id="Rectangle-2" x="24.5" y="0.5" width="19" height="19" rx="8"></rect>
                <rect id="Rectangle-2" x="48.5" y="0.5" width="19" height="19" rx="9.5"></rect>
                <rect id="Rectangle-2" x="0.5" y="24.5" width="19" height="19" rx="4"></rect>
                <rect id="Rectangle-2" x="24.5" y="24.5" width="19" height="19" rx="8"></rect>
                <rect id="Rectangle-2" x="48.5" y="24.5" width="19" height="19" rx="9.5"></rect>
                <rect id="Rectangle-2" x="0.5" y="48.5" width="19" height="19" rx="4"></rect>
                <rect id="Rectangle-2" x="24.5" y="48.5" width="19" height="19" rx="8"></rect>
                <rect id="Rectangle-2" x="48.5" y="48.5" width="19" height="19" rx="9.5"></rect>
            </g>
        </g>
        <g id="Group" stroke-width="1" transform="translate(28, 101)" fill="#262624">
            <g id="nuitral" fill-rule="nonzero">
                <path d="M27.46,19.776 C27.46,18.88 27.208,18.224 26.704,17.808 C26.2,17.392 25.524,17.184 24.676,17.184 C24.036,17.184 23.468,17.264 22.972,17.424 C22.476,17.584 22.052,17.768 21.7,17.976 L21.7,26.952 C21.62,26.984 21.5,27.02 21.34,27.06 C21.18,27.1 21.004,27.12 20.812,27.12 C20.124,27.12 19.78,26.832 19.78,26.256 L19.78,18.072 C19.78,17.736 19.848,17.46 19.984,17.244 C20.12,17.028 20.356,16.816 20.692,16.608 C21.108,16.352 21.66,16.12 22.348,15.912 C23.036,15.704 23.812,15.6 24.676,15.6 C26.132,15.6 27.28,15.928 28.12,16.584 C28.96,17.24 29.38,18.272 29.38,19.68 L29.38,26.952 C29.3,26.984 29.176,27.02 29.008,27.06 C28.84,27.1 28.668,27.12 28.492,27.12 C27.804,27.12 27.46,26.832 27.46,26.256 L27.46,19.776 Z" id="Path"></path>
                <path d="M32.98,15.96 C33.06,15.928 33.184,15.892 33.352,15.852 C33.52,15.812 33.7,15.792 33.892,15.792 C34.564,15.792 34.9,16.088 34.9,16.68 L34.9,22.848 C34.9,23.888 35.172,24.628 35.716,25.068 C36.26,25.508 37.012,25.728 37.972,25.728 C38.612,25.728 39.156,25.66 39.604,25.524 C40.052,25.388 40.404,25.248 40.66,25.104 L40.66,15.96 C40.74,15.928 40.864,15.892 41.032,15.852 C41.2,15.812 41.372,15.792 41.548,15.792 C42.236,15.792 42.58,16.088 42.58,16.68 L42.58,25.032 C42.58,25.368 42.536,25.636 42.448,25.836 C42.36,26.036 42.148,26.232 41.812,26.424 C41.444,26.632 40.936,26.832 40.288,27.024 C39.64,27.216 38.86,27.312 37.948,27.312 C36.348,27.312 35.12,26.96 34.264,26.256 C33.408,25.552 32.98,24.448 32.98,22.944 L32.98,15.96 Z" id="Path"></path>
                <path d="M48.22,26.952 C48.14,26.984 48.02,27.02 47.86,27.06 C47.7,27.1 47.524,27.12 47.332,27.12 C46.644,27.12 46.3,26.832 46.3,26.256 L46.3,15.96 C46.38,15.928 46.504,15.892 46.672,15.852 C46.84,15.812 47.02,15.792 47.212,15.792 C47.884,15.792 48.22,16.088 48.22,16.68 L48.22,26.952 Z M46.012,12.408 C46.012,12.072 46.128,11.788 46.36,11.556 C46.592,11.324 46.892,11.208 47.26,11.208 C47.628,11.208 47.924,11.324 48.148,11.556 C48.372,11.788 48.484,12.072 48.484,12.408 C48.484,12.744 48.372,13.028 48.148,13.26 C47.924,13.492 47.628,13.608 47.26,13.608 C46.892,13.608 46.592,13.492 46.36,13.26 C46.128,13.028 46.012,12.744 46.012,12.408 Z" id="Shape"></path>
                <path d="M55.756,27.312 C54.636,27.312 53.728,27.064 53.032,26.568 C52.336,26.072 51.988,25.248 51.988,24.096 L51.988,12.696 C52.068,12.664 52.192,12.628 52.36,12.588 C52.528,12.548 52.708,12.528 52.9,12.528 C53.572,12.528 53.908,12.816 53.908,13.392 L53.908,16.152 L57.844,16.152 C57.892,16.232 57.94,16.34 57.988,16.476 C58.036,16.612 58.06,16.76 58.06,16.92 C58.06,17.464 57.82,17.736 57.34,17.736 L53.908,17.736 L53.908,23.976 C53.908,24.616 54.088,25.068 54.448,25.332 C54.808,25.596 55.316,25.728 55.972,25.728 C56.244,25.728 56.548,25.68 56.884,25.584 C57.22,25.488 57.5,25.376 57.724,25.248 C57.82,25.344 57.908,25.464 57.988,25.608 C58.068,25.752 58.108,25.92 58.108,26.112 C58.108,26.464 57.9,26.752 57.484,26.976 C57.068,27.2 56.492,27.312 55.756,27.312 Z" id="Path"></path>
                <path d="M62.812,26.952 C62.732,26.984 62.612,27.02 62.452,27.06 C62.292,27.1 62.116,27.12 61.924,27.12 C61.236,27.12 60.892,26.832 60.892,26.256 L60.892,18.12 C60.892,17.752 60.96,17.46 61.096,17.244 C61.232,17.028 61.46,16.816 61.78,16.608 C62.196,16.336 62.76,16.1 63.472,15.9 C64.184,15.7 64.988,15.6 65.884,15.6 C67.164,15.6 67.804,15.92 67.804,16.56 C67.804,16.72 67.78,16.868 67.732,17.004 C67.684,17.14 67.62,17.256 67.54,17.352 C67.38,17.32 67.172,17.288 66.916,17.256 C66.66,17.224 66.404,17.208 66.148,17.208 C65.412,17.208 64.764,17.284 64.204,17.436 C63.644,17.588 63.18,17.768 62.812,17.976 L62.812,26.952 Z" id="Path"></path>
                <path d="M73.9,25.752 C74.572,25.752 75.128,25.684 75.568,25.548 C76.008,25.412 76.324,25.28 76.516,25.152 L76.516,21.672 L73.54,21.984 C72.708,22.064 72.092,22.252 71.692,22.548 C71.292,22.844 71.092,23.28 71.092,23.856 C71.092,24.464 71.324,24.932 71.788,25.26 C72.252,25.588 72.956,25.752 73.9,25.752 Z M73.876,15.6 C75.268,15.6 76.372,15.912 77.188,16.536 C78.004,17.16 78.412,18.144 78.412,19.488 L78.412,25.176 C78.412,25.528 78.344,25.796 78.208,25.98 C78.072,26.164 77.868,26.336 77.596,26.496 C77.212,26.72 76.704,26.916 76.072,27.084 C75.44,27.252 74.716,27.336 73.9,27.336 C72.396,27.336 71.232,27.04 70.408,26.448 C69.584,25.856 69.172,25 69.172,23.88 C69.172,22.824 69.516,22.028 70.204,21.492 C70.892,20.956 71.86,20.624 73.108,20.496 L76.516,20.16 L76.516,19.488 C76.516,18.688 76.276,18.104 75.796,17.736 C75.316,17.368 74.668,17.184 73.852,17.184 C73.18,17.184 72.548,17.28 71.956,17.472 C71.364,17.664 70.836,17.88 70.372,18.12 C70.244,18.008 70.128,17.88 70.024,17.736 C69.92,17.592 69.868,17.432 69.868,17.256 C69.868,17.032 69.924,16.848 70.036,16.704 C70.148,16.56 70.324,16.424 70.564,16.296 C70.996,16.072 71.492,15.9 72.052,15.78 C72.612,15.66 73.22,15.6 73.876,15.6 Z" id="Shape"></path>
                <path d="M84.028,26.952 C83.948,26.984 83.828,27.02 83.668,27.06 C83.508,27.1 83.332,27.12 83.14,27.12 C82.452,27.12 82.108,26.832 82.108,26.256 L82.108,11.448 C82.188,11.416 82.312,11.38 82.48,11.34 C82.648,11.3 82.82,11.28 82.996,11.28 C83.684,11.28 84.028,11.568 84.028,12.144 L84.028,26.952 Z" id="Path"></path>
            </g>
            <g id="core" transform="translate(62, 32.3)" fill-rule="nonzero">
                <path d="M3.548,0.804 C3.276,0.804 3.024,0.85 2.792,0.942 C2.56,1.034 2.36,1.17 2.192,1.35 C2.024,1.53 1.892,1.754 1.796,2.022 C1.7,2.29 1.652,2.596 1.652,2.94 C1.652,3.628 1.824,4.154 2.168,4.518 C2.512,4.882 2.972,5.064 3.548,5.064 C3.884,5.064 4.164,5.018 4.388,4.926 C4.612,4.834 4.812,4.728 4.988,4.608 C5.076,4.656 5.148,4.716 5.204,4.788 C5.26,4.86 5.288,4.948 5.288,5.052 C5.288,5.164 5.244,5.268 5.156,5.364 C5.068,5.46 4.946,5.544 4.79,5.616 C4.634,5.688 4.45,5.746 4.238,5.79 C4.026,5.834 3.796,5.856 3.548,5.856 C3.132,5.856 2.748,5.796 2.396,5.676 C2.044,5.556 1.74,5.376 1.484,5.136 C1.228,4.896 1.028,4.594 0.884,4.23 C0.74,3.866 0.668,3.436 0.668,2.94 C0.668,2.452 0.744,2.026 0.896,1.662 C1.048,1.298 1.252,0.992 1.508,0.744 C1.764,0.496 2.066,0.31 2.414,0.186 C2.762,0.062 3.132,0 3.524,0 C3.772,0 4.002,0.022 4.214,0.066 C4.426,0.11 4.608,0.172 4.76,0.252 C4.912,0.332 5.03,0.422 5.114,0.522 C5.198,0.622 5.24,0.724 5.24,0.828 C5.24,0.924 5.212,1.008 5.156,1.08 C5.1,1.152 5.028,1.208 4.94,1.248 C4.764,1.128 4.572,1.024 4.364,0.936 C4.156,0.848 3.884,0.804 3.548,0.804 Z" id="Path"></path>
                <path d="M11.72,2.928 C11.72,3.376 11.656,3.78 11.528,4.14 C11.4,4.5 11.218,4.808 10.982,5.064 C10.746,5.32 10.46,5.516 10.124,5.652 C9.788,5.788 9.412,5.856 8.996,5.856 C8.58,5.856 8.204,5.788 7.868,5.652 C7.532,5.516 7.244,5.32 7.004,5.064 C6.764,4.808 6.58,4.5 6.452,4.14 C6.324,3.78 6.26,3.376 6.26,2.928 C6.26,2.48 6.326,2.076 6.458,1.716 C6.59,1.356 6.776,1.048 7.016,0.792 C7.256,0.536 7.544,0.34 7.88,0.204 C8.216,0.068 8.588,0 8.996,0 C9.404,0 9.776,0.068 10.112,0.204 C10.448,0.34 10.734,0.536 10.97,0.792 C11.206,1.048 11.39,1.356 11.522,1.716 C11.654,2.076 11.72,2.48 11.72,2.928 Z M8.996,0.792 C8.452,0.792 8.024,0.98 7.712,1.356 C7.4,1.732 7.244,2.256 7.244,2.928 C7.244,3.608 7.398,4.134 7.706,4.506 C8.014,4.878 8.444,5.064 8.996,5.064 C9.548,5.064 9.976,4.876 10.28,4.5 C10.584,4.124 10.736,3.6 10.736,2.928 C10.736,2.256 10.582,1.732 10.274,1.356 C9.966,0.98 9.54,0.792 8.996,0.792 Z" id="Shape"></path>
                <path d="M14.168,5.676 C14.128,5.692 14.068,5.71 13.988,5.73 C13.908,5.75 13.82,5.76 13.724,5.76 C13.38,5.76 13.208,5.616 13.208,5.328 L13.208,1.26 C13.208,1.076 13.242,0.93 13.31,0.822 C13.378,0.714 13.492,0.608 13.652,0.504 C13.86,0.368 14.142,0.25 14.498,0.15 C14.854,0.05 15.256,0 15.704,0 C16.344,0 16.664,0.16 16.664,0.48 C16.664,0.56 16.652,0.634 16.628,0.702 C16.604,0.77 16.572,0.828 16.532,0.876 C16.452,0.86 16.348,0.844 16.22,0.828 C16.092,0.812 15.964,0.804 15.836,0.804 C15.468,0.804 15.144,0.842 14.864,0.918 C14.584,0.994 14.352,1.084 14.168,1.188 L14.168,5.676 Z" id="Path"></path>
                <path d="M18.356,3.492 C18.572,4.54 19.26,5.064 20.42,5.064 C20.756,5.064 21.06,5.008 21.332,4.896 C21.604,4.784 21.82,4.664 21.98,4.536 C22.172,4.648 22.268,4.8 22.268,4.992 C22.268,5.104 22.218,5.212 22.118,5.316 C22.018,5.42 21.882,5.512 21.71,5.592 C21.538,5.672 21.338,5.736 21.11,5.784 C20.882,5.832 20.636,5.856 20.372,5.856 C19.444,5.856 18.71,5.604 18.17,5.1 C17.63,4.596 17.36,3.86 17.36,2.892 C17.36,2.436 17.426,2.03 17.558,1.674 C17.69,1.318 17.874,1.016 18.11,0.768 C18.346,0.52 18.628,0.33 18.956,0.198 C19.284,0.066 19.64,0 20.024,0 C20.384,0 20.716,0.06 21.02,0.18 C21.324,0.3 21.586,0.47 21.806,0.69 C22.026,0.91 22.198,1.17 22.322,1.47 C22.446,1.77 22.508,2.1 22.508,2.46 C22.508,2.636 22.468,2.762 22.388,2.838 C22.308,2.914 22.196,2.96 22.052,2.976 L18.356,3.492 Z M20.012,0.78 C19.524,0.78 19.12,0.95 18.8,1.29 C18.48,1.63 18.312,2.116 18.296,2.748 L21.596,2.292 C21.556,1.852 21.402,1.49 21.134,1.206 C20.866,0.922 20.492,0.78 20.012,0.78 Z" id="Shape"></path>
            </g>
        </g>
    </g>
</svg>